<svg width="302" height="100" viewBox="0 0 302 100" fill="none" xmlns="http://www.w3.org/2000/svg">
<path d="M116.152 86.6284C104.973 79.4269 89.801 78.1631 65.3328 84.9516C39.2483 91.0813 30.5513 95.0107 19.1297 87.1226C14.7418 83.2477 13.1686 77.0087 14.3433 68.0218C17.068 53.3716 24.431 39.2731 37.5095 23.6345C44.8098 15.4994 51.5813 8.51789 60.5232 5.71441C67.3762 3.95572 66.7355 9.34147 65.9063 10.1117C65.0312 10.1117 63.5613 10.2495 62.4253 10.9909C61.5033 11.7059 58.9725 14.0148 58.8366 17.1206C58.6405 21.8751 63.561 20.8855 65.6832 18.275C67.9707 15.3334 71.3514 9.70012 68.6921 4.44994C67.5775 2.58121 65.6517 1.28969 63.2605 0.849923C55.0728 0.381988 47.4473 4.28507 40.4099 8.60014C25.0191 19.2917 12.7074 34.1063 5.74101 50.3225C1.72451 60.1067 -1.90781 74.1222 3.53691 85.5295C7.74869 93.4446 16.493 97.6489 26.9254 96.7697C34.2422 96.001 43.0898 93.6362 49.0404 92.2083C54.9909 90.7782 85.4514 80.3075 95.4598 98.5311C95.4598 98.5311 98.7879 92.0705 107.105 91.9327C113.943 91.3017 123.808 93.9122 130.992 99.1883C128.598 95.589 121.813 90.2844 116.152 86.6284Z" fill="#F89D21"/>
<path d="M68.4389 25.4758C62.7419 21.738 51.2914 28.8839 42.1201 41.1415C33.7333 52.1364 30.1119 64.9152 34.0529 70.8245C39.9156 77.7778 50.799 67.6639 55.4273 62.2503L56.0244 61.6175C59.1719 58.2368 61.6036 54.1689 63.9571 50.2658C63.9571 50.2658 66.1203 46.6928 66.2236 46.5276C67.5605 46.2812 69.1709 45.8963 70.9855 45.3739C70.9596 45.4558 64.0428 57.082 64.7484 62.8527C64.9681 64.6133 64.8002 71.0446 71.0794 72.9956C79.4482 74.3982 86.1307 67.911 92.0261 62.1392C92.0261 62.1392 93.0307 61.1782 93.5989 60.6295C93.455 61.2052 93.2676 61.9732 93.2676 61.9732C90.8176 70.4937 94.1201 72.2813 96.186 72.9411C102.43 74.7561 109.888 65.6855 109.912 65.6855C109.719 68.5427 109.153 70.9064 112.165 72.8029C115.008 73.8206 117.885 72.2693 120.072 70.8125C127.949 65.2607 134.295 56.5717 139.421 49.0607H136.152C136.113 49.0607 128.084 60.6982 122.87 63.2275C122.862 63.2275 121.913 63.7146 121.366 63.3293C120.69 62.7517 120.957 61.5514 121.375 60.7012C121.401 60.6456 141.505 25.7766 141.505 25.7766H132.013C132.013 25.7766 130.976 27.4542 130.891 27.5642C130.827 27.5094 130.675 27.221 130.57 27.0828C124.689 18.9476 111.371 31.4609 101.344 45.9722C97.4836 51.5521 92.5687 57.8346 87.4725 62.3694C87.4725 62.3694 79.9229 69.29 76.6969 64.3177C75.5177 62.2286 75.8805 59.1742 76.5456 57.1684C80.3014 46.4769 86.7733 36.7738 94.1378 30.919C96.2168 29.2985 98.4765 28.8298 99.5979 29.5171C100.666 30.1503 100.839 31.7155 100.163 32.7877C98.4476 32.7329 97.0735 33.2542 95.9562 34.4086C93.7555 36.7175 92.9909 38.9441 93.6905 41.0333C97.0896 45.8704 103.869 36.3055 103.541 30.4789C103.424 28.3897 102.309 26.4113 100.646 25.4484C98.1667 23.965 94.3849 24.3491 91.9374 25.5317C88.6612 26.7681 83.4748 31.0827 80.4475 34.4364C76.6364 38.6422 70.1004 43.314 68.0563 42.7909C68.7259 41.0036 74.2468 29.7079 68.4389 25.4758ZM114.204 42.1862C116.05 39.6306 121.425 32.7866 122.735 31.6326C127.142 27.7558 128.903 29.4615 129.056 30.67C124.943 38.0357 120.089 46.4739 115.525 54.06C115.535 54.0329 114.097 56.231 114.097 56.231C112.082 59.3087 110.052 61.9473 106.742 63.7886C106.27 63.9268 105.491 63.982 104.974 63.5959C104.35 63.1836 104.104 62.4963 104.174 61.7813C104.373 59.4183 106.779 52.1912 114.204 42.1862ZM62.5639 46.611C62.5639 46.611 62.4812 46.8592 62.4403 46.9403C62.4298 46.9403 58.3017 53.6732 58.3017 53.6732C55.8103 56.9994 52.6997 61.1781 48.8112 63.1836C47.6587 63.5685 46.0656 63.8164 45.2537 62.8001C43.5325 60.7384 44.4196 57.8801 45.1402 55.5716L45.3952 54.7469C47.4615 49.1407 50.7401 44.1924 53.9311 39.6025C53.9709 39.5754 54.0603 39.548 54.0926 39.548C54.1001 39.5754 54.1129 39.5754 54.1185 39.6306C56.1209 43.4778 59.8757 45.2635 62.6837 46.0893C62.7006 46.0893 62.7186 46.1167 62.7186 46.1719C62.719 46.2538 62.6731 46.3646 62.5639 46.611ZM66.4748 38.6688C66.4568 38.7237 64.6361 42.9009 64.6361 42.9009C64.3729 43.1206 63.9568 43.0109 63.4798 42.9009L62.6626 42.7627C60.0965 41.9662 58.1609 40.2619 57.5642 38.2283C56.741 34.2704 60.122 31.1646 61.6118 30.0383C63.0412 29.048 65.2633 28.526 66.5537 29.5434C67.3495 30.4781 67.651 31.687 67.651 33.0071C67.6514 34.7932 67.1001 36.7994 66.4748 38.6688Z" fill="#F89D21"/>
<path d="M186.478 51.4206C185.563 49.4422 183.39 48.1777 181.075 48.3148C173.555 49.0024 166.2 55.1862 162.338 64.0631C160.312 68.626 159.206 72.3909 158.48 78.3824C160.819 75.6897 165.588 71.265 171.001 68.8461C171.001 68.8461 171.737 63.1021 175.493 57.9897C176.914 55.8727 179.758 52.465 182.951 53.3716C185.741 54.3067 184.76 62.0299 181.052 69.5041C178.308 75.0017 174.11 80.5002 169.862 84.2921C166.106 87.4805 160.549 91.328 155.687 88.36C152.625 86.5469 151.063 82.7531 151.393 77.8608C152.856 63.9816 159.174 52.1631 168.215 38.6959C177.538 26.1904 187.814 13.3553 201.658 6.51053C204.482 5.08156 207.097 4.75183 209.357 5.63137C209.357 5.63137 196.362 12.7773 190.167 25.9978C188.591 29.3514 186.4 33.8851 188.607 37.8982C189.76 39.9866 191.808 40.1519 193.457 40.0418C201.05 38.2824 205.956 31.1916 209.964 24.7059C212.288 19.7862 214.353 14.8939 214.353 9.45183C214.353 8.79237 214.319 7.91321 214.263 7.25299C217.891 5.3298 225.33 8.73716 225.33 8.73716C231.143 10.6619 243.521 20.1445 247.696 21.9576C249.733 19.5943 253.08 16.0217 254.964 14.2348L252.236 12.558C247.868 9.89198 243.252 7.36303 238.708 4.86224C228.388 -0.771376 219.988 1.20702 215.713 2.7464C214.033 3.35066 212.497 3.87304 212.497 3.87304C209.324 0.410103 204.121 0.739084 200.287 1.6742C186.499 5.63174 173.698 15.2785 159.973 32.0171C149.883 45.1275 143.624 56.4515 140.288 67.6372C137.717 75.1674 136.935 86.2438 143.211 92.8129C148.548 98.3906 155.623 97.1824 160.62 95.1766C171.446 89.8446 181.176 78.3554 186.024 65.1353C187.194 61.2056 188.493 55.6538 186.478 51.4206ZM211.372 10.002C209.939 26.4379 197.163 36.0858 194.002 36.8542C192.087 37.2384 188.818 36.387 191.736 29.4893C196.033 20.1986 203.37 12.3113 211.242 8.27073C211.433 8.95798 211.428 9.39663 211.372 10.002Z" fill="#F89D21"/>
<path d="M287.158 12.0901C280.285 15.9935 273.162 18.5213 264.538 17.6422C262.148 20.3364 259.821 23.1121 257.676 25.97C269.78 29.0484 282.612 22.2047 289.768 15.6916C297.338 9.12246 301.22 0.850235 301.22 0.850235C301.22 0.850235 295.545 7.33597 287.158 12.0901Z" fill="#F89D21"/>
<path d="M152.195 34.0391L157.282 25.777H148.267L143.182 34.0391H152.195Z" fill="#F89D21"/>
<path d="M264.501 87.3933C263.532 88.0528 262.17 87.5458 262.679 86.0345C263.948 82.1867 268.99 74.3452 268.99 74.3452L283.034 49.4365H273.414C272.957 50.1876 271.979 51.9125 271.979 51.9125C271.534 51.1712 270.203 49.5225 269.655 49.1665C267.305 47.6812 263.856 48.3835 261.478 49.7298C251.135 55.7773 243.589 67.7254 237.638 77.0431C237.638 77.0431 231.374 87.4008 227.896 88.1711C225.181 88.3911 225.462 84.734 225.579 83.8819C226.629 77.7244 229.067 71.8707 231.523 66.5661C236.518 63.1031 242.219 58.5684 247.399 53.5938C258.643 42.8464 268.121 30.6707 269.506 27.9498C269.506 27.9498 268.007 28.2525 266.236 28.307C257.587 40.3726 239.886 57.9085 234.52 60.519C236.897 54.8012 252.256 27.5097 265.326 14.4548L267.383 12.4753C270.563 9.36953 273.859 6.18149 276.427 5.6591C276.698 5.63169 277.047 5.6591 277.349 6.29228C277.463 8.71044 276.563 10.4973 275.53 12.5309L274.083 15.4996C274.083 15.4996 276.133 15.1147 277.479 14.6738C279.042 11.7344 280.772 8.43516 280.134 4.50579C279.921 3.24132 279.006 2.27954 277.81 2.05946C273.911 1.31738 269.662 4.20235 266.243 6.53939L266.104 6.62126C248.528 20.3912 233.687 40.2352 220.711 67.3352C219.771 68.0487 216.137 68.9016 215.519 68.4889C216.801 65.851 218.414 62.3047 219.222 58.4568C219.361 57.3572 219.491 56.231 219.491 55.1317C219.491 52.7661 218.923 50.5406 216.804 49.002C214.319 47.7649 211.249 48.3425 209.178 49.2765C199.903 53.1244 192.971 62.6348 187.968 70.4669C185.278 75.4429 182.595 80.7724 181.852 86.875C181.329 91.6565 182.394 94.7349 185.113 96.2747C187.909 97.7029 191.428 96.2183 192.81 95.5044C202.207 90.5573 208.772 80.636 213.948 71.5654C214.153 71.5383 216.979 71.4565 219.116 70.9059C219.145 70.9059 219.157 70.9059 219.204 70.9348C219.082 71.3453 217.977 74.6445 217.977 74.6445C214.697 84.2635 213.18 90.8055 216.279 94.6801C220.706 100.15 228.036 94.4885 233.998 87.0114C232.718 95.9712 237.362 97.3735 240.902 96.687C244.968 95.5882 249.499 91.2445 251.601 89.019C250.926 91.6295 251.11 96.3024 254.809 96.7692C257.344 97.2379 259.241 95.8589 261.437 94.6767C269.312 90.3887 278.738 76.1001 281.186 71.9691H277.977C274.498 77.2272 270.07 84.1211 264.501 87.3933ZM193.816 86.4364C193.316 85.6943 193.151 84.8827 193.134 84.0055C193.039 78.6163 198.837 68.9651 202.929 63.7074C202.938 63.7074 202.938 63.7074 202.938 63.7074C204.653 67.4629 208.537 69.8769 210.882 70.8943C207.97 77.3811 197.983 91.2735 193.816 86.4364ZM212.525 67.9943C212.248 68.1877 207.35 66.5379 206.404 62.0032C205.601 58.0989 208.289 55.0484 210.89 53.5105C212.007 52.6306 213.689 52.329 214.922 52.7669C216.067 53.5375 216.377 54.9128 216.377 56.3947C216.377 57.3035 216.257 58.2371 216.151 59.0889C216.151 59.0889 216.13 59.2545 216.127 59.2819C215.311 62.3318 214.062 65.3279 212.525 67.9943ZM251.806 84.7051C251.802 84.7051 250.877 85.5294 250.877 85.5294C249.556 86.7105 248.196 87.975 246.555 87.3426C246.102 87.1777 245.783 86.5738 245.706 86.1052C245.632 82.7245 247.154 79.592 248.63 76.5418L249.009 75.7441C253.256 68.6534 258.192 60.2981 265.442 54.4997C266.663 53.6183 267.989 52.8777 269.388 53.4553C269.71 53.7568 270.085 54.2796 270.085 54.8012C270.085 54.9669 269.938 55.4062 269.853 55.5429C267.829 58.8151 265.9 62.2503 264.025 65.548C260.36 72.0622 256.559 78.7951 251.806 84.7051Z" fill="#F89D21"/>
</svg>
