<svg width="263" height="58" viewBox="0 0 263 58" fill="none" xmlns="http://www.w3.org/2000/svg">
<g clip-path="url(#clip0_6961_7)">
<path d="M92.7174 33.2514L91.1556 37.6766H91.0255C90.7652 36.6787 90.288 35.1603 89.507 33.3382L81.134 12.2972H72.9346V45.8326H78.3575V25.1387L78.3141 20.5401C78.2707 19.629 78.184 18.9349 78.1406 18.4143H78.2707C78.531 19.7158 78.8347 20.6702 79.0516 21.2776L89.1166 45.7459H92.9343L102.913 21.0607C103.129 20.4967 103.346 19.3687 103.563 18.4143H103.693L103.433 24.4446V45.7025H109.203V12.2105H101.307L92.7174 33.2514ZM114.669 21.6681H120.309V45.7025H114.669V21.6681ZM117.533 11.5163C116.578 11.5163 115.797 11.8634 115.147 12.4708C114.496 13.0781 114.149 13.859 114.149 14.8135C114.143 15.2455 114.229 15.674 114.401 16.0704C114.573 16.4668 114.827 16.8221 115.147 17.1128C115.797 17.7202 116.578 18.0239 117.533 18.0239C118.487 18.0239 119.311 17.6768 119.919 17.1128C120.239 16.8221 120.493 16.4668 120.665 16.0704C120.837 15.674 120.923 15.2455 120.917 14.8135C120.917 13.9024 120.57 13.1215 119.919 12.4708C119.355 11.8634 118.531 11.5163 117.533 11.5163ZM140.309 21.4511C139.268 21.2342 138.183 21.1041 137.142 21.1041C134.582 21.1041 132.24 21.6681 130.287 22.796C128.335 23.924 126.773 25.4858 125.776 27.4381C124.734 29.4337 124.214 31.733 124.214 34.3794C124.214 36.6787 124.734 38.7178 125.732 40.5832C126.73 42.4054 128.118 43.8804 129.984 44.8782C131.763 45.876 133.845 46.3966 136.188 46.3966C138.877 46.3966 141.177 45.8326 142.999 44.7914L143.042 44.7481V39.542L142.825 39.7156C142.001 40.3229 141.047 40.8435 140.092 41.1472C139.094 41.4943 138.183 41.6678 137.402 41.6678C135.146 41.6678 133.368 41.0171 132.11 39.5854C130.808 38.1972 130.157 36.2883 130.157 33.9022C130.157 31.4293 130.808 29.4771 132.153 28.0454C133.498 26.6138 135.277 25.8763 137.446 25.8763C139.268 25.8763 141.133 26.4836 142.825 27.6984L143.042 27.8719V22.3622L142.999 22.3188C142.261 22.0151 141.437 21.6681 140.309 21.4511ZM158.921 21.2776C157.532 21.2776 156.231 21.7114 155.103 22.6225C154.148 23.4034 153.498 24.5314 152.934 25.8763H152.89V21.6681H147.25V45.7025H152.89V33.425C152.89 31.3426 153.324 29.6072 154.279 28.3491C155.233 27.0476 156.448 26.3969 157.923 26.3969C158.443 26.3969 158.964 26.527 159.615 26.6138C160.222 26.7873 160.656 26.9608 160.96 27.1778L161.177 27.3513V21.7114L161.046 21.6681C160.656 21.4078 159.875 21.2776 158.921 21.2776ZM174.278 21.1475C170.33 21.1475 167.163 22.3188 164.951 24.6181C162.695 26.9175 161.61 30.0845 161.61 34.0757C161.61 37.8067 162.738 40.8436 164.907 43.0561C167.077 45.2253 170.027 46.3532 173.714 46.3532C177.575 46.3532 180.656 45.1819 182.868 42.8392C185.124 40.4965 186.209 37.3729 186.209 33.5117C186.209 29.694 185.168 26.6572 183.042 24.4446C181.003 22.232 178.009 21.1475 174.278 21.1475ZM178.79 39.6288C177.749 40.9737 176.1 41.6245 174.061 41.6245C172.022 41.6245 170.374 40.9737 169.202 39.542C168.031 38.1972 167.467 36.2449 167.467 33.772C167.467 31.2124 168.074 29.2602 169.202 27.8719C170.374 26.4836 171.979 25.7895 174.018 25.7895C176.014 25.7895 177.575 26.4402 178.703 27.7851C179.831 29.13 180.439 31.0823 180.439 33.6419C180.352 36.2449 179.875 38.2839 178.79 39.6288ZM198.79 31.6463C197.011 30.9087 195.883 30.3448 195.363 29.8675C194.929 29.4337 194.712 28.8263 194.712 28.0454C194.712 27.3947 194.972 26.7439 195.623 26.3101C196.274 25.8763 197.011 25.6593 198.096 25.6593C199.05 25.6593 200.048 25.8329 201.003 26.0932C201.957 26.3535 202.825 26.7439 203.519 27.2645L203.736 27.4381V22.1453L203.606 22.1019C202.955 21.8416 202.087 21.5813 201.046 21.3644C200.005 21.1908 199.05 21.1041 198.269 21.1041C195.58 21.1041 193.367 21.7548 191.632 23.1865C189.896 24.5314 189.072 26.3535 189.072 28.4793C189.072 29.6072 189.246 30.6051 189.636 31.4293C190.027 32.2536 190.59 33.0345 191.371 33.6853C192.152 34.2926 193.28 34.9868 194.842 35.6375C196.144 36.2015 197.141 36.6354 197.749 36.9824C198.356 37.3295 198.747 37.7199 199.05 38.0236C199.267 38.3707 199.397 38.8045 199.397 39.3685C199.397 40.9737 198.183 41.7546 195.71 41.7546C194.755 41.7546 193.757 41.5811 192.586 41.1906C191.415 40.8002 190.33 40.2362 189.419 39.5854L189.202 39.4119V44.9216L189.332 44.965C190.157 45.3554 191.154 45.6157 192.369 45.9194C193.584 46.1363 194.669 46.3099 195.623 46.3099C198.53 46.3099 200.916 45.6591 202.608 44.2275C204.343 42.8392 205.254 41.0605 205.254 38.7611C205.254 37.156 204.82 35.7243 203.866 34.6397C202.608 33.5985 201.046 32.5139 198.79 31.6463ZM220.135 21.1475C216.187 21.1475 213.02 22.3188 210.807 24.6181C208.595 26.9175 207.467 30.0845 207.467 34.0757C207.467 37.8067 208.595 40.8436 210.764 43.0561C212.933 45.2253 215.883 46.3532 219.571 46.3532C223.432 46.3532 226.512 45.1819 228.725 42.8392C230.98 40.4965 232.065 37.3729 232.065 33.5117C232.065 29.694 231.024 26.6572 228.898 24.4446C226.859 22.232 223.866 21.1475 220.135 21.1475ZM224.603 39.6288C223.562 40.9737 221.913 41.6245 219.874 41.6245C217.792 41.6245 216.187 40.9737 215.015 39.542C213.844 38.1972 213.28 36.2449 213.28 33.772C213.28 31.2124 213.887 29.2602 215.015 27.8719C216.187 26.4836 217.792 25.7895 219.831 25.7895C221.783 25.7895 223.388 26.4402 224.516 27.7851C225.644 29.13 226.252 31.0823 226.252 33.6419C226.252 36.2449 225.688 38.2839 224.603 39.6288ZM262.217 26.3101V21.6681H256.533V14.5532L256.36 14.5966L250.98 16.2017L250.85 16.2451V21.6681H242.347V18.6312C242.347 17.2429 242.694 16.1584 243.301 15.4642C243.909 14.7701 244.82 14.423 245.948 14.423C246.729 14.423 247.553 14.5966 248.464 14.987L248.681 15.1172V10.2148L248.551 10.1714C247.77 9.91114 246.729 9.73761 245.384 9.73761C243.692 9.73761 242.217 10.1281 240.872 10.7788C239.527 11.5163 238.529 12.5142 237.792 13.859C237.054 15.1605 236.664 16.6356 236.664 18.3275V21.6681H232.716V26.2667H236.664V45.7025H242.347V26.3101H250.85V38.6744C250.85 43.7502 253.236 46.3099 258.008 46.3099C258.789 46.3099 259.614 46.1797 260.394 46.0496C261.219 45.876 261.826 45.6591 262.173 45.4856L262.217 45.4422V40.8002L262 40.9737C261.653 41.1906 261.349 41.3642 260.828 41.4943C260.394 41.6245 260.004 41.6678 259.7 41.6678C258.572 41.6678 257.791 41.4075 257.227 40.7568C256.707 40.1494 256.447 39.1516 256.447 37.6766V26.3101H262.217Z" fill="#F89D21"/>
<path d="M0.223877 1.01752H26.8179V27.6116H0.223877V1.01752Z" fill="#F89D21"/>
<path d="M29.5945 1.01752H56.1885V27.6116H29.5945V1.01752Z" fill="#F89D21"/>
<path d="M0.223877 30.3881H26.8179V56.9822H0.223877V30.3881Z" fill="#F89D21"/>
<path d="M29.5945 30.3881H56.1885V56.9822H29.5945V30.3881Z" fill="#F89D21"/>
</g>
<defs>
<clipPath id="clip0_6961_7">
<rect width="262" height="57.3905" fill="white" transform="translate(0.219971 0.304779)"/>
</clipPath>
</defs>
</svg>
