<svg width="89" height="72" viewBox="0 0 89 72" fill="none" xmlns="http://www.w3.org/2000/svg">
<path d="M88.78 8.52319C85.4848 9.9929 81.9895 10.9576 78.4105 11.3853C82.1384 9.13575 85.0008 5.57358 86.3487 1.32928C82.8048 3.44653 78.9275 4.93827 74.8843 5.74004C71.5908 2.20763 66.899 0 61.7059 0C51.7351 0 43.6512 8.13836 43.6512 18.176C43.6512 19.6008 43.811 20.9879 44.1187 22.3185C29.114 21.5603 15.8108 14.3241 6.906 3.32719C5.35225 6.01171 4.46194 9.13437 4.46194 12.465C4.46194 18.7712 7.64953 24.3344 12.4937 27.5941C9.62661 27.5037 6.82263 26.7241 4.31584 25.3204C4.31481 25.3965 4.31481 25.4727 4.31481 25.5492C4.31481 34.3558 10.5381 41.7023 18.797 43.3721C16.1384 44.1001 13.3497 44.2066 10.6439 43.6836C12.9412 50.9049 19.6089 56.1597 27.509 56.3068C21.3301 61.1816 13.5452 64.0876 5.08687 64.0876C3.62937 64.0876 2.1925 64.0015 0.780029 63.8336C8.76981 68.9909 18.2597 72 28.4553 72C61.664 72 79.8233 44.3031 79.8233 20.2839C79.8233 19.4956 79.8061 18.7117 79.771 17.9323C83.3056 15.3599 86.3563 12.1737 88.78 8.52319Z" fill="#F89D21" fill-opacity="0.6"/>
</svg>
